# xmcd
#
# Track frame offsets: 
#        150
#        15658
#        29957
#        49693
#        65730
#        81939
#        103839
#        120742
#        142296
#        161801
#
# Disc length: 2384 seconds
#
# Revision: 0
# Processed by: cddbd v1.5.2PL0 Copyright (c) Steve Scherf et al.
# Submitted via: ExactAudioCopy v0.95a5
#
DISCID=98094e0a
DTITLE=Nora Collins - Run Away With Me
DYEAR=2011
DGENRE=Alt. Country
TTITLE0=Run Away With Me
TTITLE1=Dimples Filled With Lies
TTITLE2=First Heartbreak
TTITLE3=Sad Case Of Lonely
TTITLE4=Who's She
TTITLE5=You're With Me
TTITLE6=Playing Hard To Get
TTITLE7=Sweeeter
TTITLE8=Regret Losing This
TTITLE9=Roller Coaster Ride
EXTD=
EXTT0=
EXTT1=
EXTT2=
EXTT3=
EXTT4=
EXTT5=
EXTT6=
EXTT7=
EXTT8=
EXTT9=
PLAYORDER=
